<svg width="205" height="56" viewBox="0 0 205 56" fill="none" xmlns="http://www.w3.org/2000/svg">
<g clip-path="url(#clip0_22_215)">
<g opacity="0.9">
<path opacity="0.9" d="M45.9744 16.665C46.1605 16.9443 46.3466 17.2236 46.5328 17.5495C49.2782 14.7099 49.9762 11.5445 48.5337 8.70491C48.2079 8.1463 47.6961 7.4015 47.3704 6.8429C49.3247 9.44971 48.8594 13.5461 45.9744 16.665Z" fill="white"/>
<path opacity="0.9" d="M47.1377 18.8994C47.2773 19.2253 47.3704 19.5977 47.4634 19.9701C49.9297 18.0615 50.9069 15.5478 50.3485 13.3134V13.2668C50.2089 12.6617 49.9297 11.9169 49.7435 11.3117C50.6277 13.7323 49.7435 16.665 47.1377 18.8994Z" fill="white"/>
<path opacity="0.9" d="M47.7427 21.5528C47.7892 21.9252 47.8357 22.3441 47.8357 22.7631C49.9763 21.5062 51.0465 19.7373 51 18.015L50.9534 17.2702L50.8604 16.0133C51.093 17.9684 50.0228 20.0632 47.7427 21.5528Z" fill="white"/>
<path opacity="0.9" d="M47.7893 24.532C47.7427 24.951 47.6962 25.4165 47.6497 25.8354C49.511 25.0906 50.5347 23.9269 50.7208 22.6234L50.8604 21.1804L50.907 20.6683C50.8604 22.2045 49.7902 23.601 47.7893 24.532Z" fill="white"/>
<path opacity="0.9" d="M47.3239 27.7905C47.2309 28.256 47.0913 28.7215 46.9517 29.187C48.5803 28.8612 49.511 28.1164 49.7436 27.2319C49.8832 26.6733 50.0694 25.9285 50.209 25.3234C50.0228 26.394 49.0456 27.2785 47.3239 27.7905Z" fill="white"/>
<path opacity="0.9" d="M46.3001 31.1422C46.114 31.6077 45.9278 32.1197 45.7417 32.5852C47.1377 32.5852 47.9287 32.2594 48.1614 31.7008C48.3941 31.1422 48.6733 30.3973 48.9059 29.8387C48.6733 30.537 47.7891 31.0491 46.3001 31.1422Z" fill="white"/>
<path opacity="0.9" d="M44.8111 34.5869C44.5784 35.0524 44.2992 35.5644 44.02 36.0299C45.1833 36.3558 45.8348 36.3558 45.9744 36.0765L46.9516 34.261C46.812 34.68 46.0675 34.8196 44.8111 34.5869Z" fill="white"/>
<path opacity="0.9" d="M41.8796 39.4281C42.8103 40.0798 43.2756 40.3591 43.3222 40.3126L43.5548 40.0332L44.532 38.5902C44.4389 38.7298 43.8806 38.5436 42.8568 38.0316C42.5311 38.4971 42.2054 38.9626 41.8796 39.4281Z" fill="white"/>
<path opacity="0.9" d="M39.2273 42.6866C39.9253 43.6176 40.2045 44.1762 40.0184 44.3624L40.8094 43.478L41.4609 42.6866C41.5074 42.547 41.2282 42.1746 40.3906 41.3367C40.2045 41.5229 40.0649 41.7556 39.8788 41.9418C39.6461 42.2211 39.46 42.4539 39.2273 42.6866Z" fill="white"/>
<path opacity="0.9" d="M36.4352 47.9002L37.8312 46.6434L37.9708 46.5037C38.25 46.2244 38.1569 45.5262 37.5985 44.409C37.1797 44.7814 36.8075 45.1538 36.3887 45.5262C36.854 46.7365 36.8075 47.5278 36.4352 47.9002Z" fill="white"/>
<path opacity="0.9" d="M33.4106 47.8072C33.5967 49.3899 33.271 50.414 32.573 50.8795C33.0849 50.5536 33.7363 50.0416 34.2016 49.7157C34.76 49.2968 34.9462 48.3192 34.667 46.9227C34.2482 47.202 33.8294 47.5278 33.4106 47.8072Z" fill="white"/>
<path opacity="0.9" d="M30.4325 49.5295C30.3394 51.4381 29.5949 52.6949 28.5247 53.2535C29.0365 52.9742 29.7345 52.6018 30.2464 52.3225C31.177 51.8105 31.7354 50.6002 31.6889 48.8778C31.2236 49.1106 30.8513 49.3433 30.4325 49.5295Z" fill="white"/>
<path opacity="0.9" d="M27.5009 50.6933C26.989 53.0208 25.7791 54.4638 24.197 54.9294C24.7554 54.7432 25.4534 54.5104 26.0118 54.3242C28.1058 53.4863 28.5246 51.2519 28.7107 50.2743C28.2919 50.4605 27.8731 50.6002 27.5009 50.6933Z" fill="white"/>
<path opacity="0.9" d="M25.8258 51.1122C25.4536 51.2053 25.0348 51.2519 24.6625 51.2984C23.6853 54.0449 21.7309 55.7207 19.637 55.9069L20.2884 55.8138L21.5913 55.6276C23.4061 55.2552 25.0348 53.6725 25.8258 51.1122Z" fill="white"/>
<path opacity="0.9" d="M23.1267 51.345C22.7545 51.345 22.4288 51.2984 22.0565 51.2519C20.4278 54.5104 17.5428 56.2327 14.7974 55.8138C15.2162 55.8603 15.7746 55.9069 16.2399 55.9534L16.8448 56C19.3111 56.0931 21.7773 54.4173 23.1267 51.345Z" fill="white"/>
<path opacity="0.9" d="M20.6605 50.926C20.3347 50.8329 20.009 50.6933 19.7298 50.5536C17.0774 54.3707 13.4479 55.8138 9.91138 54.3242C10.5163 54.6035 11.3074 54.8828 11.9588 55.1155C13.5409 55.5811 17.4497 56.0466 20.6605 50.926Z" fill="white"/>
<path opacity="0.9" d="M18.5666 49.8554C18.5201 49.8554 18.5201 49.8088 18.4736 49.8088C18.2409 49.6226 18.0083 49.4364 17.7756 49.2502C14.751 52.8811 9.39968 54.6966 5.58398 51.3915C6.00278 51.8105 6.65424 52.3225 7.11957 52.6949L7.35223 52.8346C10.563 55.1621 15.5885 53.8587 18.5666 49.8554Z" fill="white"/>
<path opacity="0.9" d="M16.8448 48.133C16.6586 47.8537 16.4725 47.5744 16.2864 47.2486C12.7964 50.6933 7.259 51.4846 4.0017 49.0175C3.3037 48.5054 2.74531 47.8537 2.37305 47.1555C2.69878 47.7141 3.16411 48.4589 3.53637 49.0175C3.8621 49.483 4.28089 49.9019 4.79276 50.3209C8.05005 52.7415 13.4479 51.7639 16.8448 48.133Z" fill="white"/>
<path opacity="0.9" d="M15.6816 45.852C15.542 45.5262 15.449 45.1538 15.3559 44.7814C11.6333 47.6675 5.95626 47.9933 2.69896 45.5262C1.58217 44.6883 0.884178 43.6176 0.60498 42.4539L0.651513 42.6866C0.791112 43.2452 1.02378 43.9435 1.16337 44.4555C1.53564 45.4331 2.1871 46.3175 3.11775 47.0623C6.42159 49.5295 12.0521 48.9709 15.6816 45.852Z" fill="white"/>
<path opacity="0.9" d="M2.32674 43.2452C5.58404 45.7124 11.3076 45.6658 15.1233 43.1521C15.0767 42.7332 15.0767 42.3608 15.0302 41.9418C11.2145 44.1297 5.49097 43.9435 2.23367 41.5229C0.791157 40.4522 0.0931637 39.1022 0.0466309 37.7523L0.0931637 38.6833L0.186229 39.754C0.279295 41.0574 0.977288 42.2677 2.32674 43.2452Z" fill="white"/>
<path opacity="0.9" d="M15.2162 38.8695C11.4471 40.3591 5.77006 39.5678 2.46623 37.1471C0.791049 35.8903 0.0930558 34.4938 0.279187 33.1904L0.0930558 34.7731L0.0465229 35.0989C-0.0465428 36.4489 0.65145 37.8454 2.23357 39.0557C5.49087 41.5229 11.2144 42.0349 15.0301 40.2195C15.0766 39.754 15.1232 39.335 15.2162 38.8695Z" fill="white"/>
<path opacity="0.9" d="M3.49002 32.4456C1.67524 31.0956 0.930718 29.6991 1.25645 28.5819C1.07032 29.1405 0.930718 29.8853 0.744587 30.4904C0.046594 34.5403 9.16703 38.5436 15.542 36.9609C15.6351 36.4954 15.7747 36.0299 15.9143 35.5644C12.3313 36.2627 6.79386 34.8662 3.49002 32.4456Z" fill="white"/>
<path opacity="0.9" d="M5.2583 27.5578C3.35045 26.1147 2.55939 24.8579 2.88512 24.0665C2.65246 24.6251 2.37326 25.3699 2.14059 25.9285C1.81486 26.8595 2.55939 28.1629 4.4207 29.5594C7.678 32.0266 13.1223 33.7955 16.5658 33.5162C16.7519 33.0507 16.938 32.5387 17.1242 32.0731C13.8669 32.0731 8.51559 30.0249 5.2583 27.5578Z" fill="white"/>
<path opacity="0.9" d="M18.1012 30.118C18.3339 29.6525 18.6131 29.1405 18.8923 28.675C16.0072 27.7905 10.9817 25.1372 7.72439 22.67C5.77001 21.1804 4.83936 20.1563 5.07202 19.7373L4.09483 21.5528C3.81563 22.1114 4.65322 23.2752 6.6076 24.7182C9.8649 27.1854 15.0301 29.606 18.1012 30.118Z" fill="white"/>
<path opacity="0.9" d="M20.1023 26.7199C20.428 26.2544 20.7537 25.7889 21.0795 25.3234C18.7063 23.6941 14.0995 20.3425 10.7957 17.8753C8.79478 16.3857 7.77106 15.5478 7.77106 15.5013L7.44533 15.9668L6.56121 17.2702C6.42161 17.4564 7.3988 18.3874 9.39971 19.877C12.7035 22.2976 17.4964 25.3699 20.1023 26.7199Z" fill="white"/>
<path opacity="0.9" d="M22.5685 23.3683C22.7081 23.1821 22.8477 23.0424 22.9873 22.8562C23.2199 22.5769 23.4526 22.2976 23.7318 22.0183C21.9635 19.5977 17.8686 15.6875 14.5648 13.2203C12.5639 11.7307 11.354 11.1255 11.0748 11.4048L10.1442 12.4289L9.63232 13.0341C9.77192 12.8944 10.9352 13.5927 12.8896 15.0823C16.1935 17.596 20.521 21.32 22.5685 23.3683Z" fill="white"/>
<path opacity="0.9" d="M25.4069 20.389C25.8257 20.0166 26.198 19.6442 26.6168 19.2718C25.5 16.1995 21.917 11.7772 18.6597 9.31005C16.7518 7.86699 15.3558 7.44803 14.7509 7.96009L13.2153 9.3566C13.6807 8.93764 14.9836 9.40315 16.938 10.8928C20.1953 13.3134 23.9644 17.596 25.4069 20.389Z" fill="white"/>
<path opacity="0.9" d="M28.3384 17.8753C28.7572 17.5495 29.176 17.2702 29.5948 16.9909C29.176 13.4065 26.1513 8.5187 22.894 6.09808C21.0793 4.74812 19.5437 4.42227 18.613 5.02743C18.1012 5.35328 17.4497 5.81878 16.9844 6.19118C17.7754 5.58603 19.2645 5.95843 21.1258 7.35494C24.3831 9.77556 27.5939 14.5237 28.3384 17.8753Z" fill="white"/>
<path opacity="0.9" d="M31.3165 15.9202C31.7353 15.6874 32.1541 15.4547 32.5729 15.2685C32.8521 11.3117 30.3859 6.09808 27.1286 3.63092C25.4534 2.37406 23.8713 2.09476 22.7079 2.65336C22.1496 2.88611 21.4516 3.25852 20.9397 3.53782C22.01 2.93266 23.5921 3.21197 25.3138 4.56192C28.6176 7.02909 31.27 12.1031 31.3165 15.9202Z" fill="white"/>
<path opacity="0.9" d="M29.5484 2.56025C32.8057 5.02742 34.9462 10.3807 34.2948 14.5237C34.7135 14.384 35.0858 14.2444 35.5046 14.1047C36.4353 9.86865 34.574 4.42226 31.2701 2.00165C29.7811 0.884442 28.292 0.55859 26.9891 0.977542L26.896 1.02409C26.3842 1.16374 25.6862 1.44305 25.1743 1.62925C26.4307 1.11719 27.9663 1.39649 29.5484 2.56025Z" fill="white"/>
<path opacity="0.9" d="M33.5968 1.44307C36.8541 3.91024 38.4362 9.40317 37.1333 13.7323C37.5056 13.6392 37.9244 13.5927 38.2966 13.5927C39.8787 9.21697 38.5293 3.67748 35.2254 1.25687C34.0156 0.372414 32.7592 1.14175e-05 31.5494 0.093112L30.7118 0.139662L29.595 0.325863C30.8979 0.093112 32.2939 0.465514 33.5968 1.44307Z" fill="white"/>
<path opacity="0.9" d="M37.4125 1.16376C40.6698 3.63092 41.7866 9.17041 39.8322 13.5461C40.2044 13.5461 40.5302 13.5927 40.9024 13.6392C43.0895 9.26351 42.2054 3.77057 38.9481 1.30341C38.157 0.698254 37.2729 0.325852 36.3888 0.186201C35.9234 0.0931006 35.272 0.0465503 34.7601 0L34.3413 0C35.4116 0.0465503 36.4353 0.418953 37.4125 1.16376Z" fill="white"/>
<path opacity="0.9" d="M39.646 1.07066C39.5064 1.02411 39.3668 0.931011 39.1807 0.88446C39.3668 0.931011 39.5064 1.02411 39.646 1.07066Z" fill="white"/>
<path opacity="0.9" d="M42.2518 13.9651C42.5776 14.0582 42.8568 14.1978 43.1825 14.3375C45.9279 10.148 45.4626 4.74812 42.2053 2.32751C41.8796 2.09475 41.5538 1.862 41.2281 1.72235C40.7628 1.53615 40.2044 1.25685 39.646 1.07065C40.0648 1.25685 40.4836 1.4896 40.8559 1.7689C44.1597 4.23607 44.7646 9.68245 42.2518 13.9651Z" fill="white"/>
<path opacity="0.9" d="M44.3924 15.0357C44.3924 15.0357 44.3924 15.0823 44.3924 15.0357C44.6716 15.2219 44.9042 15.4547 45.1369 15.6874C48.115 12.0565 48.2081 7.35494 45.5557 4.74812C45.0904 4.28262 44.3924 3.72402 43.8805 3.30506L43.834 3.25851C47.1378 5.77223 47.3705 11.0324 44.3924 15.0357Z" fill="white"/>
</g>
</g>
<path d="M24.8523 46L27.267 31.4545H29.0284L27.8352 38.6705H28.0057L35.733 31.4545H38.0341L30.8466 38.017L35.6193 46H33.4886L29.5682 39.2386L27.4091 41.2841L26.6136 46H24.8523ZM42.0753 31.4545L39.6605 46H37.8991L40.3139 31.4545H42.0753ZM57.141 31.4545L54.7262 46H53.0217L46.9989 34.5795H46.8569L44.9535 46H43.1921L45.6069 31.4545H47.3114L53.3626 42.9034H53.5046L55.408 31.4545H57.141ZM69.8416 36C69.7706 35.5218 69.6475 35.0933 69.4723 34.7145C69.3018 34.331 69.0746 34.0066 68.7905 33.7415C68.5064 33.4716 68.1631 33.2656 67.7607 33.1236C67.3629 32.9768 66.9013 32.9034 66.3757 32.9034C65.514 32.9034 64.6806 33.1259 63.8757 33.571C63.0755 34.0161 62.3819 34.6719 61.7947 35.5384C61.2124 36.4048 60.817 37.4678 60.6087 38.7273C60.4003 39.9867 60.4216 41.0497 60.6726 41.9162C60.9283 42.7827 61.3662 43.4384 61.9865 43.8835C62.6115 44.3286 63.3738 44.5511 64.2734 44.5511C65.1068 44.5511 65.8833 44.3736 66.603 44.0185C67.3227 43.6586 67.9264 43.152 68.4141 42.4986C68.9018 41.8404 69.2166 41.0663 69.3587 40.1761L69.87 40.2898H65.495L65.7791 38.7273H71.3189L71.0348 40.2898C70.8454 41.4924 70.424 42.5365 69.7706 43.4219C69.1172 44.3073 68.3028 44.9915 67.3274 45.4744C66.352 45.9574 65.2867 46.1989 64.1314 46.1989C62.8435 46.1989 61.764 45.8958 60.8928 45.2898C60.0215 44.6837 59.4084 43.822 59.0533 42.7045C58.6982 41.5871 58.6484 40.2614 58.9041 38.7273C59.0888 37.5767 59.4107 36.5421 59.87 35.6236C60.334 34.7003 60.9022 33.9143 61.5746 33.2656C62.2517 32.617 63.0069 32.1198 63.8402 31.7741C64.6783 31.4285 65.5613 31.2557 66.4893 31.2557C67.2564 31.2557 67.9524 31.3717 68.5774 31.6037C69.2071 31.831 69.7493 32.1553 70.2038 32.5767C70.6584 32.9934 71.0111 33.4929 71.2621 34.0753C71.513 34.6529 71.6456 35.2945 71.6598 36H69.8416ZM88.4833 35.2045C88.4833 34.4233 88.2253 33.8314 87.7092 33.429C87.1931 33.0218 86.4947 32.8182 85.614 32.8182C84.9701 32.8182 84.39 32.9223 83.8739 33.1307C83.3578 33.339 82.9364 33.6255 82.6097 33.9901C82.283 34.3546 82.0818 34.7689 82.006 35.233C81.9445 35.6212 81.9847 35.955 82.1268 36.2344C82.2688 36.509 82.4701 36.7386 82.7305 36.9233C82.9956 37.1032 83.2797 37.2524 83.5827 37.3707C83.8858 37.4844 84.1651 37.5767 84.4208 37.6477L85.8413 38.0455C86.1964 38.1449 86.5917 38.2822 87.0273 38.4574C87.4629 38.6326 87.8701 38.8717 88.2489 39.1747C88.6277 39.473 88.9165 39.8565 89.1154 40.3253C89.319 40.794 89.364 41.3693 89.2504 42.0511C89.1178 42.8371 88.7934 43.5473 88.2773 44.1818C87.766 44.8163 87.0889 45.3205 86.2461 45.6946C85.408 46.0687 84.4303 46.2557 83.3129 46.2557C82.2712 46.2557 81.3952 46.0876 80.685 45.7514C79.9795 45.4152 79.4587 44.9465 79.1225 44.3452C78.7911 43.7438 78.6632 43.0455 78.739 42.25H80.5572C80.5098 42.7992 80.6187 43.2538 80.8839 43.6136C81.149 43.9687 81.5183 44.2339 81.9918 44.4091C82.4653 44.5795 82.9909 44.6648 83.5685 44.6648C84.2409 44.6648 84.8612 44.5559 85.4293 44.3381C86.0022 44.1155 86.4757 43.8078 86.8498 43.4148C87.2286 43.017 87.4606 42.553 87.5458 42.0227C87.631 41.5398 87.5647 41.1468 87.3469 40.8438C87.1291 40.5407 86.8143 40.2945 86.4023 40.1051C85.9904 39.9157 85.5382 39.75 85.0458 39.608L83.3413 39.0966C82.2617 38.7699 81.4402 38.3035 80.8768 37.6974C80.3181 37.0914 80.1168 36.2983 80.2731 35.3182C80.4151 34.5038 80.7584 33.7936 81.3029 33.1875C81.8474 32.5767 82.5221 32.1032 83.3271 31.767C84.132 31.4261 84.9985 31.2557 85.9265 31.2557C86.864 31.2557 87.6665 31.4261 88.3342 31.767C89.0018 32.1032 89.4989 32.5696 89.8256 33.1662C90.1523 33.758 90.2731 34.4375 90.1879 35.2045H88.4833ZM104.959 38.8409C104.703 40.3561 104.213 41.6652 103.489 42.7685C102.764 43.867 101.879 44.7145 100.832 45.3111C99.786 45.9029 98.652 46.1989 97.4304 46.1989C96.1709 46.1989 95.0985 45.8911 94.2131 45.2756C93.3324 44.6553 92.7027 43.7794 92.3239 42.6477C91.9498 41.5114 91.8906 40.1667 92.1463 38.6136C92.402 37.0985 92.892 35.7917 93.6165 34.6932C94.3409 33.59 95.2287 32.7424 96.2798 32.1506C97.331 31.554 98.4721 31.2557 99.7031 31.2557C100.953 31.2557 102.016 31.5658 102.892 32.1861C103.773 32.8016 104.4 33.6776 104.774 34.8139C105.153 35.9455 105.214 37.2879 104.959 38.8409ZM103.283 38.6136C103.491 37.3731 103.46 36.3291 103.19 35.4815C102.92 34.634 102.473 33.9924 101.848 33.5568C101.223 33.1212 100.48 32.9034 99.6179 32.9034C98.7183 32.9034 97.866 33.133 97.0611 33.5923C96.2562 34.0469 95.5672 34.7169 94.9943 35.6023C94.4214 36.483 94.0308 37.5625 93.8224 38.8409C93.6141 40.0814 93.6449 41.1255 93.9148 41.973C94.1847 42.8205 94.6321 43.4621 95.2571 43.8977C95.8821 44.3333 96.6255 44.5511 97.4872 44.5511C98.3868 44.5511 99.2391 44.3239 100.044 43.8693C100.849 43.41 101.538 42.7401 102.111 41.8594C102.684 40.974 103.074 39.892 103.283 38.6136ZM106.727 46L109.142 31.4545H110.903L108.744 44.4375H115.506L115.25 46H106.727ZM129.938 31.4545H131.699L130.108 41.0852C129.942 42.0795 129.561 42.9673 128.964 43.7486C128.368 44.5251 127.608 45.1383 126.685 45.5881C125.761 46.0331 124.729 46.2557 123.588 46.2557C122.447 46.2557 121.491 46.0331 120.719 45.5881C119.947 45.1383 119.393 44.5251 119.057 43.7486C118.721 42.9673 118.635 42.0795 118.801 41.0852L120.392 31.4545H122.153L120.577 40.9432C120.463 41.6534 120.518 42.2855 120.74 42.8395C120.963 43.3887 121.337 43.822 121.862 44.1392C122.393 44.4517 123.063 44.608 123.872 44.608C124.682 44.608 125.404 44.4517 126.038 44.1392C126.673 43.822 127.189 43.3887 127.587 42.8395C127.989 42.2855 128.247 41.6534 128.361 40.9432L129.938 31.4545ZM134.165 33.017L134.421 31.4545H145.33L145.074 33.017H140.5L138.341 46H136.58L138.739 33.017H134.165ZM149.81 31.4545L147.395 46H145.634L148.048 31.4545H149.81ZM164.392 38.8409C164.137 40.3561 163.647 41.6652 162.922 42.7685C162.198 43.867 161.312 44.7145 160.266 45.3111C159.22 45.9029 158.086 46.1989 156.864 46.1989C155.605 46.1989 154.532 45.8911 153.647 45.2756C152.766 44.6553 152.136 43.7794 151.757 42.6477C151.383 41.5114 151.324 40.1667 151.58 38.6136C151.836 37.0985 152.326 35.7917 153.05 34.6932C153.775 33.59 154.662 32.7424 155.713 32.1506C156.765 31.554 157.906 31.2557 159.137 31.2557C160.387 31.2557 161.45 31.5658 162.326 32.1861C163.206 32.8016 163.834 33.6776 164.208 34.8139C164.587 35.9455 164.648 37.2879 164.392 38.8409ZM162.716 38.6136C162.925 37.3731 162.894 36.3291 162.624 35.4815C162.354 34.634 161.907 33.9924 161.282 33.5568C160.657 33.1212 159.913 32.9034 159.051 32.9034C158.152 32.9034 157.3 33.133 156.495 33.5923C155.69 34.0469 155.001 34.7169 154.428 35.6023C153.855 36.483 153.464 37.5625 153.256 38.8409C153.048 40.0814 153.078 41.1255 153.348 41.973C153.618 42.8205 154.066 43.4621 154.691 43.8977C155.316 44.3333 156.059 44.5511 156.921 44.5511C157.82 44.5511 158.673 44.3239 159.478 43.8693C160.283 43.41 160.971 42.7401 161.544 41.8594C162.117 40.974 162.508 39.892 162.716 38.6136ZM180.11 31.4545L177.695 46H175.99L169.968 34.5795H169.826L167.922 46H166.161L168.576 31.4545H170.28L176.331 42.9034H176.473L178.377 31.4545H180.11ZM191.021 31.4545L188.606 46H186.844L189.259 31.4545H191.021ZM193.501 33.017L193.757 31.4545H204.666L204.41 33.017H199.836L197.677 46H195.916L198.075 33.017H193.501Z" fill="#D4D4D6"/>
<defs>
<clipPath id="clip0_22_215">
<rect width="51" height="56" fill="white"/>
</clipPath>
</defs>
</svg>
